<?xml version="1.0" standalone="no"?><!DOCTYPE svg PUBLIC "-//W3C//DTD SVG 1.1//EN" "http://www.w3.org/Graphics/SVG/1.1/DTD/svg11.dtd"><svg t="1589443950041" class="icon" viewBox="0 0 1024 1024" version="1.1" xmlns="http://www.w3.org/2000/svg" p-id="6139" width="128" height="128" xmlns:xlink="http://www.w3.org/1999/xlink"><defs><style type="text/css"></style></defs><path d="M708.867228 621.551068c9.134031-8.185426 18.641569-14.978133 28.680203-19.332301-5.244444-7.242961-9.321296-13.672394-13.367449-19.838837-7.43125-11.264555-15.313777-24.15105-19.1215-30.451546-25.324782 14.021342-49.288566 42.966581-68.329225 68.665893-11.078313 14.937201-21.038152 30.942733-30.596855 47.87845l45.883003 33.83255C670.654928 661.21544 692.169941 636.571157 708.867228 621.551068zM543.047622 726.005049c-18.587334 12.128225-45.375443 27.067472-85.531002 39.157835 5.244444 13.048177 8.123005 26.149567 11.957333 36.256762 1.437745 6.297426 2.847861 12.076036 4.76656 17.426905 17.201777-5.350868 34.351366-10.730389 51.1561-17.946744 28.624944-12.169157 62.575174-29.452799 84.09121-52.18043l-39.676651-43.018769C562.645982 712.942545 554.071699 718.800973 543.047622 726.005049zM273.535375 747.759515l-10.519588 14.500249c13.398148 10.172687 27.614941 19.040658 42.529629 27.080775 26.65508 14.247492 60.688197 30.438243 99.404987 36.323277 1.437745-11.662621 2.184759-26.721595 3.834328-37.759999l2.847861-19.345604c-10.516518-1.943258-22.553669-5.019317-35.335786-9.67843-21.62246-7.894807-49.236378-21.276582-79.806627-43.033096C288.368198 727.935004 280.058952 738.787166 273.535375 747.759515zM882.835422 282.591123l-180.173522 0-31.529087 89.473801 178.231287 0c8.118911 0 13.872962 5.299703 13.872962 13.527085l0 118.954229c-25.324782-0.480954-64.522526 1.943258-102.735849 20.794605l4.76656 13.048177 15.286148 40.129976c22.476921-7.242961 42.047652-12.646018 57.359382-14.991436l25.324782-3.858888 0 302.19767c0 8.243755-5.754051 13.515828-13.872962 13.515828L177.965739 875.382171c-8.123005 0-13.848403-5.26184-13.848403-13.515828L164.117336 677.181063c3.806699 3.858888 8.202822 8.081049 13.367449 12.55392 8.229428 7.125281 20.558222 18.86772 36.322254 32.409131 9.081843-8.241708 17.603937-18.960841 24.843828-26.602891 4.208858-4.433986 8.123005-8.708336 11.479449-13.062504-37.759999-31.900547-75.971275-76.875878-86.012979-89.446171L164.117336 385.590985c0-7.735172 5.725398-13.527085 13.848403-13.527085l96.529497 0-29.15911-89.473801L141.161508 282.5901c-35.8413 0-65.451688 29.504988-65.451688 66.25396l0 546.851763c0 36.721343 29.610388 66.227354 65.451688 66.227354l741.673913 0c36.295648 0 65.453734-29.506011 65.453734-66.227354L948.289156 348.845083C948.288133 312.096111 919.130046 282.591123 882.835422 282.591123zM297.076534 292.910143c14.832823 34.764781 31.581276 71.219041 45.907563 98.992595l23.914666 46.360887c41.885969 81.246419 93.228311 170.481789 100.896968 182.064592 0.478907 0.505513 0.478907 0.505513 0.478907 0.984421 0 0.480954 0 0.959861 0.477884 0.959861 28.681226-48.786123 53.445236-92.802616 72.192206-127.978766l30.117948-56.506968 23.431665-46.361911c13.928221-27.507494 30.623461-63.244416 45.430702-98.514711l-1.438769 0c5.270027-16.897855 7.668657-34.285874 7.668657-52.153824 0-98.526991-79.857792-178.679495-177.402409-178.679495-98.022501 0-177.402409 80.152505-177.402409 178.679495 0 17.86795 2.368954 35.255968 7.642051 52.153824L297.076534 292.910143zM468.752522 155.757436c47.345308 0 83.668585 38.637995 83.668585 84.998883 0 47.799656-36.323277 85.000929-83.668585 85.000929-45.907563 0-84.174098-37.201274-84.174098-85.000929C384.578424 194.395432 422.844959 155.757436 468.752522 155.757436z" p-id="6140" fill="#BBCCDD"></path></svg>